<?xml version="1.0" encoding="utf-8"?>
<!-- Generator: Adobe Illustrator 24.1.1, SVG Export Plug-In . SVG Version: 6.00 Build 0)  -->
<svg version="1.1" id="Capa_1" xmlns="http://www.w3.org/2000/svg" xmlns:xlink="http://www.w3.org/1999/xlink" x="0px" y="0px"
	 viewBox="0 0 800 800" style="enable-background:new 0 0 800 800;" xml:space="preserve">
<g>
	<path d="M430.89,522.33c0,70.62,0,140.44,0,209.38c16.32-16.22,32.9-32.69,49.97-49.65c-7.83-11.77-13.44-25.59-13.56-41.37
		c-0.23-30.13,12.8-52.91,37.98-68.8c20.48-12.93,43.57-18.67,67.21-21.74c15.85-2.06,31.91-2.62,47.9-3.35
		c8.02-0.37,12.12,3.65,11.88,11.63c-1.03,35.36-4.51,70.37-19.1,103.18c-15.01,33.75-42.34,51.23-77.39,50.18
		c-12.35-0.37-23.6-4.36-41.96-15.5c-1.67,2.46-3.35,5.93-5.9,8.53c-17.07,17.34-34.21,34.6-51.59,51.61
		c-4.1,4.01-6.33,7.9-5.97,13.86c0.49,8.06-3.03,12.02-9.31,12.11c-6.38,0.1-10.1-3.86-9.61-11.79c0.39-6.25-2.03-10.33-6.31-14.52
		c-17.96-17.58-35.6-35.48-53.37-53.24c-1.85-1.85-3.81-3.61-5.64-5.33c-43.87,30.12-100.63,11.42-119.91-41.47
		c-2.55-7-5.83-13.96-6.94-21.23c-3.73-24.48-7.05-49.04-9.66-73.66c-1.17-11.01,2.96-14.51,13.84-14.46
		c32.51,0.17,64.45,3.94,94.91,16.02c28.87,11.45,49.22,30.83,55.02,62.48c3.83,20.88-0.72,40.27-12.81,57.14
		c16.96,16.84,33.57,33.32,50.16,49.8c0-69.25,0-139.08,0-209.71c-2.23,1.01-4.33,1.88-6.36,2.89
		c-62.82,31.06-136.13-4.62-150.31-73.32c-1.03-4.98-3.33-6.96-8.12-7.97c-73.9-15.48-108.13-98.41-66.54-161.41
		c2.95-4.46,2.39-7.05-0.32-11.17c-41.34-62.86-6.39-146.37,67.39-161.09c4.69-0.94,6.61-3.14,7.54-7.61
		c10.17-48.66,49.48-82.6,99.09-85.01c21.9-1.07,42.39,4.62,60.64,16.89c5.15,3.46,8.49,3.81,13.97,0.24
		c62.23-40.57,145.32-5.45,159.99,67.47c0.98,4.89,3.03,7.08,8.03,8.06c72.05,14.14,107.68,96.63,68.39,158.63
		c-3.77,5.95-4.34,9.68-0.29,16.02c39.6,61.93,4.44,144.23-67.62,158.95c-4.55,0.93-7.38,2.42-8.47,7.62
		c-14.62,69.76-87.59,104.94-151.41,73.16C434.71,523.97,433.06,523.3,430.89,522.33z M357.34,37.61
		c-45.18-0.03-82.06,33.77-85.61,78.71c-0.62,7.87-4.37,10.92-12.1,11.78c-33.46,3.74-58.2,20.5-71.34,51.8
		c-13.19,31.43-8.61,61.08,12.48,87.98c6.55,8.36,6.57,10.29-0.03,18.7c-21.33,27.19-25.76,57.22-12.18,88.73
		c13.38,31.04,38.19,47.77,71.86,51.03c6.95,0.67,10.57,3.9,11.26,10.96c3.35,34.29,20.33,59.35,52.25,72.65
		c31.79,13.24,61.7,8.35,88.47-13.46c6.06-4.93,10.89-4.93,16.94,0c26.77,21.82,56.7,26.67,88.48,13.45
		c31.93-13.29,48.87-38.39,52.25-72.66c0.7-7.08,4.33-10.25,11.26-10.93c33.97-3.37,58.84-20.29,72.12-51.81
		c13.36-31.7,8.67-61.71-13.04-88.54c-5.17-6.39-5.14-11.2,0-17.55c21.73-26.85,26.34-56.84,13.03-88.55
		c-13.25-31.58-38.23-48.38-72.12-51.87c-7.49-0.77-10.56-4.33-11.33-11.68c-3.5-33.58-20.3-58.32-51.44-71.6
		c-31.31-13.36-61.06-8.89-88.05,12.1c-9.01,7.01-10.33,7.12-19.25-0.01C395.49,44.23,377.67,37.4,357.34,37.61z M331.77,682.66
		c-15.21-15.17-29.88-29.88-44.66-44.48c-4.82-4.76-6.57-9.9-2-15.5c4.09-5.01,9.88-4.32,15.89,1.64
		c13.08,12.97,26.04,26.06,39.08,39.08c1.77,1.77,3.66,3.41,5.63,5.23c15.96-25.32,10.85-58.22-13.03-75.09
		c-11.67-8.25-25.76-13.73-39.48-18.28c-20.22-6.71-41.48-8.27-64.21-8.6c1.45,13.8,2.31,26.79,4.29,39.61
		c3.22,20.86,7.9,41.41,19.69,59.43C270.51,692.51,305.45,700.39,331.77,682.66z M496.42,668.24c1.94-1.8,3.91-3.51,5.75-5.35
		c12.85-12.83,25.63-25.72,38.51-38.51c6.04-5.99,11.78-6.73,15.9-1.76c4.62,5.57,2.94,10.73-1.88,15.51
		c-12.15,12.02-24.1,24.23-36.31,36.17c-2.77,2.71-6.27,4.66-10.21,7.53c4.13,2.61,5.4,3.53,6.78,4.27
		c26.26,14.06,59.52,4.02,75.44-23.07c10.56-17.97,15.25-37.95,18.17-58.33c1.8-12.5,2.76-25.11,4.24-39.08
		c-16.61,1.84-31.23,2.82-45.62,5.22c-20.58,3.44-40.66,8.83-57.69,21.82C485.46,611.01,479.26,646.18,496.42,668.24z"/>
	<path d="M420.78,383.04c-59.05-0.02-105.82-47.13-105.76-106.52c0.06-58.35,47.48-105.28,106.33-105.22
		c58.41,0.06,105.42,47.43,105.38,106.2C526.7,336.05,479.51,383.06,420.78,383.04z M420.62,363.77
		c47.4,0.12,86.84-39.16,86.87-86.52c0.03-47.33-39.46-86.76-86.77-86.64c-47.09,0.11-86.16,39.05-86.45,86.15
		C333.97,324.1,373.22,363.65,420.62,363.77z"/>
	<path d="M261.77,200.36c11.63,5.24,22.07,9.3,31.71,14.76c2.17,1.23,3.21,8.26,1.75,10.99c-1.48,2.77-7.33,5.61-10.2,4.78
		c-9.4-2.73-18.64-6.54-27.24-11.22c-2.65-1.44-4.7-7.34-4.04-10.59C254.41,205.84,258.81,203.37,261.77,200.36z"/>
	<path d="M580.22,200.08c3.13,3.5,7.24,6.13,7.96,9.49c0.65,3.02-1.47,8.64-4.01,9.98c-8.9,4.7-18.35,8.61-27.98,11.54
		c-2.64,0.8-8.08-2.06-9.62-4.74c-1.51-2.62-0.96-9.42,0.9-10.47C557.55,210.16,568.31,205.66,580.22,200.08z"/>
	<path d="M376.88,409.95c-5.32,11.7-9.54,22.34-15.14,32.2c-1.15,2.03-8.39,2.78-11.06,1.18c-2.74-1.64-5.32-7.48-4.45-10.45
		c2.67-9.14,6.44-18.11,11.05-26.44c1.52-2.75,7.2-5.02,10.46-4.47C371,402.53,373.6,406.9,376.88,409.95z"/>
	<path d="M497.73,436.3c-3.03,2.99-5.5,7.4-8.72,8.04c-3.26,0.65-9.15-1.4-10.6-4.05c-4.68-8.6-8.48-17.83-11.21-27.23
		c-0.84-2.88,1.99-8.74,4.75-10.22c2.74-1.46,9.78-0.41,11.01,1.76C488.42,414.24,492.49,424.67,497.73,436.3z"/>
	<path d="M376.87,144.65c-3.34,3.05-5.94,7.21-9.3,7.96c-3,0.67-8.63-1.48-9.98-4.04c-4.71-8.89-8.69-18.31-11.52-27.95
		c-0.8-2.71,2.52-8.26,5.44-9.94c2.48-1.42,9.25-0.34,10.38,1.7C367.38,122.3,371.6,132.93,376.87,144.65z"/>
	<path d="M497.74,118.11c-5.25,11.65-9.31,22.08-14.78,31.71c-1.22,2.16-8.23,3.2-10.97,1.74c-2.77-1.48-5.64-7.31-4.81-10.17
		c2.73-9.4,6.53-18.63,11.21-27.23c1.44-2.65,7.32-4.68,10.58-4.03C492.21,110.78,494.7,115.16,497.74,118.11z"/>
	<path d="M553.44,321.22c11.74,5.28,22.4,9.45,32.28,15.01c2.06,1.16,2.88,8.37,1.31,11.07c-1.6,2.75-7.44,5.42-10.39,4.56
		c-9.14-2.65-18.11-6.42-26.45-11.01c-2.79-1.54-5.18-7.14-4.67-10.4C546.02,327.19,550.39,324.54,553.44,321.22z"/>
	<path d="M261.89,354.07c-3-2.98-7.4-5.39-8.08-8.59c-0.69-3.25,1.26-9.19,3.87-10.62c8.59-4.68,17.81-8.48,27.2-11.22
		c2.93-0.85,8.79,1.83,10.32,4.57c1.51,2.7,0.53,9.79-1.61,11.01C283.96,344.71,273.55,348.79,261.89,354.07z"/>
	<path d="M430.48,119.63c0,4.26,0.08,8.53-0.02,12.79c-0.15,6.09-3.62,9.6-9.43,9.7c-5.8,0.1-9.57-3.26-9.71-9.36
		c-0.2-9.06-0.2-18.12,0-27.18c0.14-6.12,4.04-9.46,9.76-9.32c5.71,0.14,9.28,3.65,9.38,9.78
		C430.54,110.57,430.48,115.1,430.48,119.63z"/>
	<path d="M263.16,267.56c4.53,0.01,9.07-0.2,13.59,0.07c5.67,0.34,8.94,3.94,9.05,9.29c0.12,5.75-3.15,9.65-9.27,9.8
		c-9.05,0.22-18.12,0.19-27.18,0.02c-6.11-0.12-9.49-3.85-9.43-9.65c0.07-5.8,3.6-9.31,9.65-9.51
		C254.09,267.42,258.63,267.55,263.16,267.56z"/>
	<path d="M579.11,267.57c4.53-0.01,9.08-0.26,13.59,0.05c6.03,0.42,9.34,4.23,9.12,10.01c-0.2,5.34-3.44,8.99-9.19,9.09
		c-9.32,0.16-18.66,0.26-27.97-0.07c-5.7-0.2-8.74-4.11-8.73-9.49c0.01-5.41,3.19-9.07,8.81-9.5
		C569.5,267.29,574.32,267.58,579.11,267.57z"/>
	<path d="M411.3,434.57c0.01-4.53-0.25-9.08,0.08-13.58c0.42-5.7,4.21-8.76,9.54-8.73c5.33,0.03,9.26,3.14,9.45,8.82
		c0.32,9.31,0.26,18.65,0.04,27.97c-0.14,5.71-3.8,8.93-9.19,9.08c-5.79,0.16-9.57-3.07-9.88-9.18
		C411.09,444.17,411.29,439.37,411.3,434.57z"/>
	<path d="M328.74,176.27c-1.74,2.16-3.32,5.97-5.92,6.9c-3,1.06-7.98,0.85-10.22-1.04c-7.29-6.14-13.93-13.1-20.4-20.13
		c-3.51-3.81-3.54-9.19,0.53-12.02c3.06-2.13,9.61-3.58,11.82-1.82c8.05,6.4,15.01,14.2,22.17,21.67
		C327.84,171.01,327.84,173.25,328.74,176.27z"/>
	<path d="M522.5,185.18c-2.35-1.69-6.41-3.08-7.28-5.59c-1.12-3.23-1.07-8.47,0.89-10.86c5.86-7.16,12.72-13.54,19.54-19.85
		c4.06-3.75,9.58-3.93,12.65,0.43c2.11,2.99,3.28,9.56,1.47,11.85c-6.21,7.86-13.85,14.61-21.12,21.6
		C527.45,183.9,525.33,184.1,522.5,185.18z"/>
	<path d="M328.05,377.58c-0.05,7.98-22.26,31.07-28.06,30.4c-3.02-0.35-7.05-2.47-8.28-4.95c-1.36-2.76-1.44-8.01,0.35-10.13
		c6.31-7.5,13.33-14.51,20.82-20.83c2.17-1.83,7.26-1.81,10.21-0.63C325.66,372.47,327.1,376.31,328.05,377.58z"/>
	<path d="M513.18,378.25c1.48-1.97,2.94-5.82,5.51-6.83c2.95-1.17,8.03-1.16,10.21,0.68c7.48,6.32,14.68,13.22,20.69,20.9
		c1.86,2.38,0.99,9.11-1.18,11.76c-1.83,2.24-8.91,3.37-10.96,1.69c-8.17-6.69-15.34-14.62-22.71-22.26
		C513.8,383.2,513.91,381.2,513.18,378.25z"/>
</g>
</svg>
